<?xml version="1.0" standalone="no"?>
<!DOCTYPE svg PUBLIC "-//W3C//DTD SVG 20010904//EN"
 "http://www.w3.org/TR/2001/REC-SVG-20010904/DTD/svg10.dtd">
<svg version="1.0" xmlns="http://www.w3.org/2000/svg"
 width="260.000000pt" height="260.000000pt" viewBox="0 0 260.000000 260.000000"
 preserveAspectRatio="xMidYMid meet">
<metadata>
Created by potrace 1.11, written by Peter Selinger 2001-2013
</metadata>
<g transform="translate(0.000000,260.000000) scale(0.100000,-0.100000)"
fill="#000000" stroke="none">
<path d="M0 1300 l0 -1300 1300 0 1300 0 0 1300 0 1300 -1300 0 -1300 0 0
-1300z m1494 824 c299 -61 527 -265 618 -554 20 -66 23 -94 22 -235 -1 -145
-3 -167 -27 -240 -72 -215 -222 -392 -413 -485 -84 -41 -131 -49 -152 -28 -8
8 -12 64 -12 188 0 156 -2 180 -20 215 -11 22 -20 42 -20 46 0 3 24 9 54 12
124 13 225 67 263 141 62 119 55 292 -15 369 -14 16 -16 35 -13 103 3 92 -10
144 -38 144 -34 0 -89 -21 -145 -55 l-59 -35 -59 15 c-77 19 -210 19 -287 -1
-60 -15 -62 -15 -93 7 -39 28 -136 68 -164 69 -24 0 -31 -13 -45 -83 -5 -31
-5 -65 1 -92 9 -39 7 -48 -14 -80 -39 -57 -49 -100 -44 -195 3 -75 9 -97 39
-156 22 -45 46 -77 68 -92 42 -27 156 -62 205 -62 42 0 43 -3 16 -55 -11 -22
-20 -45 -20 -52 0 -7 -5 -13 -10 -13 -6 0 -9 -12 -8 -27 2 -20 -2 -28 -12 -28
-8 0 -14 8 -14 18 2 14 -7 17 -52 17 -43 0 -52 -3 -48 -15 4 -9 0 -15 -9 -15
-20 0 -31 16 -17 25 16 10 12 22 -10 28 -11 3 -18 1 -15 -3 9 -15 -15 -22 -31
-9 -11 9 -12 14 -3 19 18 12 2 29 -21 23 -14 -4 -20 0 -20 11 0 9 5 16 11 16
6 0 9 6 6 13 -2 6 -14 11 -25 9 -22 -3 -31 13 -11 20 7 2 5 9 -5 17 -11 9 -16
10 -16 2 0 -6 -6 -11 -14 -11 -9 0 -12 7 -9 20 4 17 0 20 -25 20 -46 0 -47
-15 -2 -51 25 -20 53 -57 72 -96 47 -96 79 -113 213 -116 l69 -2 2 -100 c1
-55 -3 -108 -8 -117 -13 -26 -57 -22 -134 12 -157 71 -304 212 -384 370 -114
225 -116 519 -5 740 82 162 228 299 395 371 131 56 338 74 494 43z m-431
-1249 c1 -5 -6 -11 -15 -13 -11 -2 -18 3 -18 13 0 17 30 18 33 0z"/>
</g>
</svg>
